# xmcd
#
# Track frame offsets:
#	150
#	18869
#	28861
#	42231
#	62345
#	84726
#	110117
#	127434
#	142945
#	160053
#	178472
#	201295
#
# Disc length: 2969 seconds
#
# Revision: 1
# Processed by: cddbd v1.5.1PL0 Copyright (c) Steve Scherf et al.
# Submitted via: CDex 1.50Beta5
#
DISCID=ad0b970c
DTITLE=アリゲーターズ - アリゲーターズ ライブ〜夜のワニ
DYEAR=1900
DGENRE=Blues
TTITLE0=日没ブルース
TTITLE1=アリゲーターズのテーマ
TTITLE2=It's All Right
TTITLE3=ムード
TTITLE4=バイトマン
TTITLE5=街のほこり
TTITLE6=最終バス
TTITLE7=金の雨〜Groovin'
TTITLE8=Bottom of the Sea
TTITLE9=安心
TTITLE10=ベートーベンをぶっとばせ
TTITLE11=夜がくる
EXTD=
EXTT0=
EXTT1=
EXTT2=
EXTT3=
EXTT4=
EXTT5=
EXTT6=
EXTT7=
EXTT8=
EXTT9=
EXTT10=
EXTT11=
PLAYORDER=
